<svg viewBox="0 0 65.355 48.378515625" xmlns:xlink="http://www.w3.org/1999/xlink" xmlns="http://www.w3.org/2000/svg" id="Layer_2" style="max-height: 500px" width="65.355" height="48.378515625"><defs><style>.cls-1{fill:url(#linear-gradient-2);}.cls-2{fill:url(#linear-gradient-51);}.cls-3{fill:url(#linear-gradient-17);}.cls-4{fill:url(#linear-gradient-43);}.cls-5{fill:url(#linear-gradient-15);}.cls-6{fill:#4c9bd5;}.cls-7{fill:url(#linear-gradient-18);}.cls-8{fill:url(#linear-gradient-56);}.cls-9{fill:url(#linear-gradient-40);}.cls-10{fill:url(#linear-gradient-52);}.cls-11{fill:url(#linear-gradient-28);}.cls-12{fill:url(#linear-gradient-14);}.cls-13{fill:url(#linear-gradient-36);}.cls-14{fill:#1b459a;}.cls-15{fill:url(#linear-gradient-20);}.cls-16{fill:url(#linear-gradient-6);}.cls-17{fill:url(#linear-gradient-53);}.cls-18{fill:url(#linear-gradient-35);}.cls-19{fill:url(#linear-gradient-48);}.cls-20{fill:url(#linear-gradient-32);}.cls-21{fill:url(#linear-gradient-11);}.cls-22{fill:url(#linear-gradient-50);}.cls-23{fill:url(#linear-gradient-39);}.cls-24{fill:url(#linear-gradient-10);}.cls-25{fill:url(#linear-gradient-49);}.cls-26{fill:url(#linear-gradient-37);}.cls-27{fill:url(#linear-gradient-16);}.cls-28{fill:url(#linear-gradient-31);}.cls-29{fill:url(#linear-gradient-41);}.cls-30{fill:url(#linear-gradient-21);}.cls-31{fill:url(#linear-gradient-25);}.cls-32{fill:url(#linear-gradient-5);}.cls-33{fill:url(#linear-gradient-54);}.cls-34{fill:url(#linear-gradient-45);}.cls-35{fill:url(#linear-gradient-55);}.cls-36{fill:url(#linear-gradient-34);}.cls-37{fill:url(#linear-gradient-7);}.cls-38{fill:url(#linear-gradient-24);}.cls-39{fill:url(#linear-gradient-9);}.cls-40{fill:url(#linear-gradient-22);}.cls-41{fill:url(#linear-gradient-42);}.cls-42{fill:url(#linear-gradient-3);}.cls-43{fill:url(#linear-gradient);}.cls-44{fill:url(#linear-gradient-27);}.cls-45{fill:url(#linear-gradient-33);}.cls-46{fill:url(#linear-gradient-38);}.cls-47{fill:url(#linear-gradient-29);}.cls-48{fill:url(#linear-gradient-30);}.cls-49{fill:url(#linear-gradient-23);}.cls-50{fill:url(#linear-gradient-19);}.cls-51{fill:url(#linear-gradient-4);}.cls-52{fill:url(#linear-gradient-8);}.cls-53{fill:url(#linear-gradient-44);}.cls-54{fill:url(#linear-gradient-47);}.cls-55{fill:url(#linear-gradient-46);}.cls-56{fill:url(#linear-gradient-12);}.cls-57{fill:url(#linear-gradient-13);}.cls-58{fill:url(#linear-gradient-26);}</style><linearGradient gradientUnits="userSpaceOnUse" gradientTransform="translate(-286.25 -359.19) rotate(-90)" y2="296.39" x2="-389.33" y1="296.84" x1="-389.33" id="linear-gradient"><stop stop-color="#1b459a" offset="0"/><stop stop-color="#204ea0" offset=".19"/><stop stop-color="#2e67b1" offset=".5"/><stop stop-color="#458fcd" offset=".9"/><stop stop-color="#4c9bd5" offset="1"/></linearGradient><linearGradient xlink:href="#linear-gradient" y2="297.68" x2="-389.97" y1="297.99" x1="-389.97" id="linear-gradient-2"/><linearGradient xlink:href="#linear-gradient" y2="295.11" x2="-388.93" y1="295.54" x1="-388.93" id="linear-gradient-3"/><linearGradient xlink:href="#linear-gradient" y2="295.11" x2="-403.55" y1="295.54" x1="-403.55" id="linear-gradient-4"/><linearGradient xlink:href="#linear-gradient" y2="297.68" x2="-402.51" y1="297.99" x1="-402.51" id="linear-gradient-5"/><linearGradient xlink:href="#linear-gradient" y2="298" x2="-401.9" y1="299.18" x1="-401.9" id="linear-gradient-6"/><linearGradient xlink:href="#linear-gradient" x2="-403.14" x1="-403.14" id="linear-gradient-7"/><linearGradient xlink:href="#linear-gradient" y2="298" x2="-390.9" y1="299.7" x1="-390.9" id="linear-gradient-8"/><linearGradient xlink:href="#linear-gradient" y2="299.59" x2="-400.69" y1="299.92" x1="-400.69" id="linear-gradient-9"/><linearGradient xlink:href="#linear-gradient" y2="316.93" x2="-403.55" y1="317.35" x1="-403.55" id="linear-gradient-10"/><linearGradient xlink:href="#linear-gradient" y2="313.29" x2="-390.57" y1="314.47" x1="-390.57" id="linear-gradient-11"/><linearGradient xlink:href="#linear-gradient" y2="312.54" x2="-391.79" y1="312.87" x1="-391.79" id="linear-gradient-12"/><linearGradient xlink:href="#linear-gradient" y2="315.62" x2="-403.14" y1="316.07" x1="-403.14" id="linear-gradient-13"/><linearGradient xlink:href="#linear-gradient" y2="315.62" y1="316.07" id="linear-gradient-14"/><linearGradient xlink:href="#linear-gradient" y2="316.93" x2="-388.93" y1="317.35" x1="-388.93" id="linear-gradient-15"/><linearGradient xlink:href="#linear-gradient" y2="312.76" x2="-401.58" y1="314.47" x1="-401.58" id="linear-gradient-16"/><linearGradient xlink:href="#linear-gradient" y2="314.47" x2="-389.97" y1="314.78" x1="-389.97" id="linear-gradient-17"/><linearGradient xlink:href="#linear-gradient" y2="314.47" x2="-402.51" y1="314.78" x1="-402.51" id="linear-gradient-18"/><linearGradient xlink:href="#linear-gradient" y2="286.25" x2="-396.24" y1="326.21" x1="-396.24" id="linear-gradient-19"/><linearGradient xlink:href="#linear-gradient" y2="321.4" y1="321.85" id="linear-gradient-20"/><linearGradient xlink:href="#linear-gradient" y2="322.69" x2="-389.97" y1="322.99" x1="-389.97" id="linear-gradient-21"/><linearGradient xlink:href="#linear-gradient" y2="320.12" x2="-388.93" y1="320.54" x1="-388.93" id="linear-gradient-22"/><linearGradient xlink:href="#linear-gradient" y2="320.12" x2="-403.55" y1="320.54" x1="-403.55" id="linear-gradient-23"/><linearGradient xlink:href="#linear-gradient" y2="322.69" x2="-402.51" y1="322.99" x1="-402.51" id="linear-gradient-24"/><linearGradient xlink:href="#linear-gradient" y2="323" x2="-401.9" y1="324.18" x1="-401.9" id="linear-gradient-25"/><linearGradient xlink:href="#linear-gradient" y2="321.4" x2="-403.14" y1="321.85" x1="-403.14" id="linear-gradient-26"/><linearGradient xlink:href="#linear-gradient" y2="323" x2="-390.9" y1="324.71" x1="-390.9" id="linear-gradient-27"/><linearGradient xlink:href="#linear-gradient" y2="324.59" x2="-400.69" y1="324.93" x1="-400.69" id="linear-gradient-28"/><linearGradient xlink:href="#linear-gradient" y2="341.94" x2="-403.55" y1="342.36" x1="-403.55" id="linear-gradient-29"/><linearGradient xlink:href="#linear-gradient" y2="338.29" x2="-390.57" y1="339.47" x1="-390.57" id="linear-gradient-30"/><linearGradient xlink:href="#linear-gradient" y2="337.54" x2="-391.79" y1="337.88" x1="-391.79" id="linear-gradient-31"/><linearGradient xlink:href="#linear-gradient" y2="340.62" x2="-403.14" y1="341.07" x1="-403.14" id="linear-gradient-32"/><linearGradient xlink:href="#linear-gradient" y2="340.62" y1="341.07" id="linear-gradient-33"/><linearGradient xlink:href="#linear-gradient" y2="341.94" x2="-388.93" y1="342.36" x1="-388.93" id="linear-gradient-34"/><linearGradient xlink:href="#linear-gradient" y2="337.77" x2="-401.58" y1="339.47" x1="-401.58" id="linear-gradient-35"/><linearGradient xlink:href="#linear-gradient" y2="339.48" x2="-389.97" y1="339.79" x1="-389.97" id="linear-gradient-36"/><linearGradient xlink:href="#linear-gradient" y2="339.48" x2="-402.51" y1="339.79" x1="-402.51" id="linear-gradient-37"/><linearGradient xlink:href="#linear-gradient" y2="309.23" x2="-374.59" y1="309.68" x1="-374.59" id="linear-gradient-38"/><linearGradient xlink:href="#linear-gradient" y2="310.51" x2="-375.23" y1="310.82" x1="-375.23" id="linear-gradient-39"/><linearGradient xlink:href="#linear-gradient" y2="307.94" x2="-374.19" y1="308.37" x1="-374.19" id="linear-gradient-40"/><linearGradient xlink:href="#linear-gradient" y2="307.94" x2="-388.81" y1="308.37" x1="-388.81" id="linear-gradient-41"/><linearGradient xlink:href="#linear-gradient" y2="310.51" x2="-387.77" y1="310.82" x1="-387.77" id="linear-gradient-42"/><linearGradient xlink:href="#linear-gradient" y2="310.83" x2="-387.16" y1="312.01" x1="-387.16" id="linear-gradient-43"/><linearGradient xlink:href="#linear-gradient" y2="309.23" x2="-388.4" y1="309.68" x1="-388.4" id="linear-gradient-44"/><linearGradient xlink:href="#linear-gradient" y2="310.83" x2="-376.16" y1="312.54" x1="-376.16" id="linear-gradient-45"/><linearGradient xlink:href="#linear-gradient" y2="312.42" x2="-385.95" y1="312.76" x1="-385.95" id="linear-gradient-46"/><linearGradient xlink:href="#linear-gradient" y2="329.76" x2="-388.81" y1="330.19" x1="-388.81" id="linear-gradient-47"/><linearGradient xlink:href="#linear-gradient" y2="326.12" x2="-375.83" y1="327.3" x1="-375.83" id="linear-gradient-48"/><linearGradient xlink:href="#linear-gradient" y2="325.37" x2="-377.05" y1="325.71" x1="-377.05" id="linear-gradient-49"/><linearGradient xlink:href="#linear-gradient" y2="328.45" x2="-388.4" y1="328.9" x1="-388.4" id="linear-gradient-50"/><linearGradient xlink:href="#linear-gradient" y2="328.45" x2="-374.59" y1="328.9" x1="-374.59" id="linear-gradient-51"/><linearGradient xlink:href="#linear-gradient" y2="329.76" x2="-374.19" y1="330.19" x1="-374.19" id="linear-gradient-52"/><linearGradient xlink:href="#linear-gradient" y2="325.6" x2="-386.84" y1="327.3" x1="-386.84" id="linear-gradient-53"/><linearGradient xlink:href="#linear-gradient" y2="327.31" x2="-375.23" y1="327.62" x1="-375.23" id="linear-gradient-54"/><linearGradient xlink:href="#linear-gradient" y2="327.31" x2="-387.77" y1="327.62" x1="-387.77" id="linear-gradient-55"/><linearGradient xlink:href="#linear-gradient" y2="299.09" x2="-381.5" y1="339.05" x1="-381.5" id="linear-gradient-56"/></defs><g id="Layer_1-2"><g><g><path d="M78.62,15.52l6.44,14.58h-2.97l-1.51-3.55h-6.48l-1.41,3.55h-2.95l6.01-14.58h2.88Zm-3.67,8.89h4.71l-2.46-5.77-2.24,5.77Z" class="cls-6"/><path d="M89.24,15.52l8.66,10.18V15.52h2.76v14.58h-2.42l-8.71-10.34v10.34h-2.76V15.52h2.47Z" class="cls-6"/><path d="M106.74,15.52v14.58h-2.82V15.52h2.82Z" class="cls-6"/><path d="M125.51,30.1h-4.35v-5.65h-6.56v5.65h-4.36V15.63h4.36v5.31h6.56v-5.31h4.35v14.46Z" class="cls-14"/><path d="M144.62,22.85c0,1.35-.31,2.59-.93,3.73s-1.55,2.04-2.78,2.7c-1.23,.67-2.73,1-4.5,1s-3.3-.35-4.54-1.04-2.16-1.61-2.76-2.74c-.6-1.13-.9-2.35-.9-3.64s.3-2.52,.9-3.65c.6-1.13,1.52-2.04,2.76-2.73,1.24-.69,2.76-1.04,4.54-1.04,1.34,0,2.53,.2,3.57,.59,1.05,.4,1.91,.93,2.58,1.61,.67,.68,1.19,1.47,1.53,2.37,.35,.9,.52,1.85,.52,2.84Zm-4.45,0c0-.54-.08-1.04-.24-1.49s-.4-.84-.73-1.17c-.32-.33-.72-.59-1.18-.77-.47-.18-1.01-.28-1.62-.28-1.17,0-2.09,.34-2.75,1.02-.67,.68-1,1.58-1,2.68s.34,2,1.01,2.69,1.59,1.03,2.75,1.03c.8,0,1.48-.16,2.05-.47,.56-.32,.99-.75,1.28-1.31s.44-1.2,.44-1.93Z" class="cls-14"/><path d="M157.44,25.89c0,.9-.23,1.69-.69,2.35-.46,.66-1.11,1.17-1.94,1.52-.83,.35-1.78,.53-2.85,.53-.3,0-.67-.02-1.1-.06-.43-.04-1.01-.14-1.73-.32-.72-.17-1.47-.43-2.25-.77v-3.55c.73,.45,1.45,.83,2.16,1.13,.71,.3,1.46,.45,2.27,.45,.74,0,1.23-.12,1.45-.37,.22-.25,.33-.48,.33-.69,0-.39-.19-.72-.56-.99s-.92-.54-1.64-.83c-.79-.33-1.49-.7-2.09-1.09-.6-.39-1.09-.89-1.47-1.48s-.57-1.29-.57-2.1,.19-1.48,.57-2.11c.38-.63,.97-1.13,1.75-1.51s1.75-.56,2.88-.56c.81,0,1.55,.08,2.24,.23,.68,.16,1.25,.33,1.7,.53,.45,.19,.75,.35,.92,.46v3.39c-.59-.42-1.25-.8-1.98-1.14-.73-.33-1.5-.5-2.33-.5-.54,0-.94,.1-1.18,.31-.24,.21-.37,.47-.37,.77,0,.29,.12,.53,.37,.74,.24,.21,.68,.46,1.3,.76,1.11,.52,2,.99,2.67,1.41,.67,.42,1.19,.9,1.57,1.45s.57,1.23,.57,2.04Z" class="cls-14"/><path d="M174.28,19.15h-5.3v10.95h-4.35v-10.95h-5.3v-3.52h14.96v3.52Z" class="cls-14"/></g><g><path d="M49.97,37.05c0-4.14,3.36-7.5,7.5-7.5s7.5,3.36,7.5,7.5-3.36,7.5-7.5,7.5-7.5-3.36-7.5-7.5Z" class="cls-14"/><path d="M25.32,7.5c0-4.14,3.36-7.5,7.5-7.5s7.5,3.36,7.5,7.5-3.36,7.5-7.5,7.5-7.5-3.36-7.5-7.5Z" class="cls-6"/><g><g><path d="M10.15,30.05c.15,.06,.3,.12,.45,.18-.15-.07-.3-.13-.45-.18Z" class="cls-43"/><path d="M11.43,30.69c.1,.06,.21,.11,.3,.18-.1-.07-.21-.12-.3-.18Z" class="cls-1"/><path d="M8.86,29.69c.14,.03,.28,.06,.43,.09-.14-.03-.28-.07-.43-.09Z" class="cls-42"/><path d="M9.29,44.31c-.14,.04-.28,.07-.43,.1,.14-.03,.28-.06,.43-.1Z" class="cls-51"/><path d="M11.74,43.22c-.1,.07-.21,.12-.3,.18,.1-.06,.21-.11,.3-.18Z" class="cls-32"/><path d="M12.93,42.2l-1.18,1.02c.43-.3,.82-.64,1.18-1.02Z" class="cls-16"/><path d="M10.6,43.86c-.15,.07-.3,.12-.45,.18,.15-.06,.3-.11,.45-.18Z" class="cls-37"/><path d="M13.45,32.54c-.48-.64-1.05-1.21-1.71-1.66l1.19,1.03c.19,.2,.35,.41,.52,.63Z" class="cls-52"/><path d="M13.34,41.7c.11-.14,.23-.27,.33-.41h0c-.1,.15-.22,.27-.33,.41Z" class="cls-39"/><path d="M31.11,44.41c-.15-.03-.28-.06-.42-.1,.14,.04,.28,.07,.42,.1Z" class="cls-24"/><path d="M27.04,31.89l1.18-1.01c-.43,.29-.82,.64-1.18,1.01Z" class="cls-21"/><path d="M26.63,32.39c-.11,.14-.24,.27-.34,.41,0,0,0,0,0,0,.1-.15,.22-.27,.33-.41Z" class="cls-56"/><path d="M29.82,44.04c-.15-.06-.31-.11-.45-.18,.14,.07,.3,.12,.45,.18Z" class="cls-57"/><path d="M29.37,30.23c.14-.07,.3-.13,.45-.18-.15,.06-.31,.12-.45,.18Z" class="cls-12"/><path d="M30.68,29.78c.14-.03,.28-.07,.42-.09-.15,.03-.28,.06-.42,.09Z" class="cls-5"/><path d="M26.51,41.56c.48,.64,1.05,1.21,1.71,1.66l-1.19-1.04c-.19-.2-.35-.41-.51-.62Z" class="cls-27"/><path d="M28.23,30.87c.1-.07,.2-.12,.31-.18-.11,.06-.21,.11-.31,.18Z" class="cls-3"/><path d="M28.54,43.41c-.11-.06-.21-.11-.31-.18,.1,.07,.2,.12,.31,.18Z" class="cls-7"/><path d="M7.5,44.55c.47,0,.92-.06,1.36-.14,.14-.03,.28-.06,.43-.1,.29-.08,.58-.16,.86-.27,.15-.06,.3-.11,.45-.18,.29-.13,.57-.29,.84-.45,.1-.06,.21-.11,.3-.18h.01s1.18-1.02,1.18-1.02h0c.15-.16,.27-.33,.41-.5,.11-.14,.23-.27,.33-.41h0c3.36-3.56,9.31-3.54,12.65,.04,.06,.08,.13,.15,.19,.23,.17,.21,.33,.43,.51,.62l1.19,1.04h0c.1,.08,.2,.13,.31,.19,.26,.17,.54,.32,.84,.45,.14,.07,.3,.12,.45,.18,.28,.1,.57,.19,.86,.27,.14,.04,.28,.07,.42,.1,.44,.08,.89,.14,1.36,.14,4.14,0,7.5-3.36,7.5-7.5s-3.36-7.5-7.5-7.5c-.46,0-.92,.06-1.36,.14-.15,.03-.28,.06-.42,.09-.3,.08-.58,.17-.86,.27-.15,.06-.31,.12-.45,.18-.29,.13-.57,.28-.84,.45-.11,.06-.21,.11-.31,.18h0s-1.18,1.02-1.18,1.02h0c-.15,.16-.27,.33-.41,.5-.11,.14-.23,.26-.33,.41,0,0,0,0,0,0-3.35,3.55-9.31,3.54-12.65-.04-.06-.08-.13-.15-.19-.23-.17-.22-.33-.43-.52-.63l-1.19-1.03h-.01c-.1-.08-.21-.13-.3-.19-.27-.17-.55-.32-.84-.45-.15-.07-.3-.13-.45-.18-.28-.1-.57-.19-.86-.27-.14-.03-.28-.07-.43-.09-.44-.08-.89-.14-1.36-.14-4.14,0-7.5,3.36-7.5,7.5s3.36,7.5,7.5,7.5Z" class="cls-50"/></g><g><path d="M35.15,30.05c.16,.06,.3,.12,.45,.18-.15-.07-.3-.13-.45-.18Z" class="cls-15"/><path d="M36.44,30.69c.1,.06,.21,.11,.31,.18-.1-.07-.21-.12-.31-.18Z" class="cls-30"/><path d="M33.87,29.69c.14,.03,.28,.06,.42,.09-.14-.03-.28-.07-.42-.09Z" class="cls-40"/><path d="M34.29,44.31c-.14,.04-.28,.07-.42,.1,.14-.03,.28-.06,.42-.1Z" class="cls-49"/><path d="M36.75,43.22c-.1,.07-.21,.12-.31,.18,.1-.06,.21-.11,.31-.18Z" class="cls-38"/><path d="M37.93,42.2l-1.18,1.02c.43-.3,.82-.64,1.18-1.02Z" class="cls-31"/><path d="M35.6,43.86c-.15,.07-.3,.12-.45,.18,.16-.06,.3-.11,.45-.18Z" class="cls-58"/><path d="M38.46,32.54c-.49-.64-1.05-1.21-1.71-1.66l1.19,1.03c.19,.2,.35,.41,.52,.63Z" class="cls-44"/><path d="M38.34,41.7c.11-.14,.23-.27,.34-.41h0c-.1,.15-.23,.27-.34,.41Z" class="cls-11"/><path d="M56.11,44.41c-.14-.03-.29-.06-.42-.1,.14,.04,.28,.07,.42,.1Z" class="cls-47"/><path d="M52.04,31.89l1.18-1.01c-.43,.29-.82,.64-1.18,1.01Z" class="cls-48"/><path d="M51.63,32.39c-.11,.14-.24,.27-.34,.41,0,0,0,0,0,0,.1-.15,.22-.27,.33-.41Z" class="cls-28"/><path d="M54.82,44.04c-.15-.06-.3-.11-.45-.18,.14,.07,.3,.12,.45,.18Z" class="cls-20"/><path d="M54.38,30.23c.14-.07,.3-.13,.45-.18-.15,.06-.3,.12-.45,.18Z" class="cls-45"/><path d="M55.69,29.78c.14-.03,.28-.07,.42-.09-.14,.03-.28,.06-.42,.09Z" class="cls-36"/><path d="M51.52,41.56c.48,.64,1.05,1.21,1.71,1.66l-1.19-1.04c-.18-.2-.35-.41-.51-.62Z" class="cls-18"/><path d="M53.23,30.87c.09-.07,.2-.12,.31-.18-.11,.06-.22,.11-.31,.18Z" class="cls-13"/><path d="M53.54,43.41c-.11-.06-.22-.11-.31-.18,.09,.07,.2,.12,.31,.18Z" class="cls-26"/></g></g><g><path d="M22.98,15.31c.15,.06,.3,.12,.45,.18-.15-.07-.3-.12-.45-.18Z" class="cls-46"/><path d="M24.26,15.95c.1,.06,.21,.11,.31,.18-.09-.07-.2-.12-.31-.18Z" class="cls-23"/><path d="M21.69,14.95c.14,.03,.28,.06,.43,.1-.15-.03-.28-.07-.43-.1Z" class="cls-9"/><path d="M22.12,29.57c-.14,.04-.28,.07-.43,.1,.14-.03,.28-.06,.43-.1Z" class="cls-29"/><path d="M24.57,28.48c-.09,.07-.2,.12-.31,.18,.1-.06,.21-.11,.31-.18Z" class="cls-41"/><path d="M25.76,27.46l-1.18,1.02c.43-.3,.82-.64,1.18-1.02Z" class="cls-4"/><path d="M23.43,29.12c-.15,.07-.3,.12-.45,.18,.15-.06,.3-.11,.45-.18Z" class="cls-53"/><path d="M26.29,17.8c-.48-.64-1.05-1.21-1.71-1.66l1.2,1.03c.19,.2,.35,.41,.51,.63Z" class="cls-34"/><path d="M26.17,26.96c.11-.14,.24-.26,.34-.41h0c-.1,.15-.23,.27-.34,.41Z" class="cls-55"/><path d="M43.94,29.67c-.15-.03-.28-.06-.43-.1,.14,.04,.28,.07,.43,.1Z" class="cls-54"/><path d="M39.87,17.15l1.18-1.01c-.43,.29-.81,.64-1.18,1.01Z" class="cls-19"/><path d="M39.46,17.65c-.12,.14-.24,.27-.34,.41h0c.1-.15,.22-.27,.34-.41Z" class="cls-25"/><path d="M42.66,29.3c-.16-.06-.31-.11-.45-.18,.14,.07,.3,.12,.45,.18Z" class="cls-22"/><path d="M42.2,15.49c.14-.07,.3-.12,.45-.18-.16,.06-.31,.12-.45,.18Z" class="cls-2"/><path d="M43.51,15.04c.14-.03,.28-.07,.43-.1-.15,.03-.28,.06-.43,.1Z" class="cls-10"/><path d="M39.35,26.82c.48,.64,1.05,1.21,1.7,1.66l-1.19-1.04c-.18-.2-.35-.41-.51-.62Z" class="cls-17"/><path d="M41.06,16.13c.1-.07,.21-.12,.31-.18-.1,.06-.21,.11-.31,.18Z" class="cls-33"/><path d="M41.37,28.67c-.1-.06-.21-.11-.31-.18,.1,.07,.21,.12,.31,.18Z" class="cls-35"/><path d="M20.33,29.81c.47,0,.92-.06,1.36-.14,.14-.03,.28-.06,.43-.1,.3-.08,.58-.16,.86-.27,.15-.06,.3-.11,.45-.18,.29-.13,.57-.29,.83-.45,.1-.06,.21-.11,.31-.18h0s1.18-1.02,1.18-1.02h0c.15-.16,.28-.33,.41-.5,.11-.14,.24-.26,.34-.41h0c3.36-3.56,9.31-3.54,12.64,.04,.06,.08,.13,.15,.19,.23,.16,.21,.33,.43,.51,.62l1.19,1.04h0s0,0,0,0c.1,.07,.21,.12,.31,.18,.27,.17,.55,.32,.84,.45,.14,.07,.3,.12,.45,.18,.28,.1,.57,.19,.86,.27,.14,.04,.28,.07,.43,.1,.44,.08,.89,.14,1.36,.14,4.14,0,7.5-3.36,7.5-7.5s-3.36-7.5-7.5-7.5c-.47,0-.92,.06-1.36,.14-.15,.03-.28,.06-.43,.1-.29,.07-.58,.16-.86,.27-.16,.06-.31,.12-.45,.18-.29,.13-.57,.28-.84,.45-.1,.06-.21,.11-.31,.18h-.01s-1.18,1.02-1.18,1.02h0c-.15,.16-.28,.33-.41,.5-.12,.14-.24,.26-.34,.41h0c-3.36,3.56-9.31,3.54-12.64-.04-.06-.09-.13-.15-.19-.23-.16-.22-.33-.43-.51-.63l-1.2-1.03h0s0,0,0,0c-.09-.07-.2-.12-.31-.18-.27-.17-.54-.32-.83-.45-.15-.07-.3-.12-.45-.18-.28-.1-.57-.19-.86-.27-.14-.03-.28-.07-.43-.1-.44-.08-.89-.14-1.36-.14-4.14,0-7.49,3.36-7.49,7.5s3.36,7.5,7.49,7.5Z" class="cls-8"/></g></g></g></g></svg>